<svg width="88" height="48" viewBox="0 0 88 48" xmlns="http://www.w3.org/2000/svg">
  <g transform="translate(-9 -5)" fill-rule="evenodd">
    <path d="M57.077 46.57c-1.848 0-3.351-1.45-3.351-3.234 0-1.783 1.503-3.236 3.35-3.236 1.846 0 3.35 1.453 3.35 3.236 0 1.784-1.504 3.234-3.35 3.234m0-8.565c-3.042 0-5.517 2.392-5.517 5.33 0 2.937 2.475 5.329 5.518 5.329 3.041 0 5.516-2.392 5.516-5.328 0-2.939-2.475-5.33-5.516-5.33M35.88 5c-5.31 0-9.628 4.171-9.628 9.298v8.565c0 3.973-3.348 7.206-7.461 7.206-4.116 0-7.461-3.233-7.461-7.206V18.58c0-.58-.485-1.047-1.083-1.047-.6 0-1.085.467-1.085 1.047v4.282c0 5.128 4.318 9.3 9.629 9.3 5.31 0 9.628-4.172 9.628-9.3v-8.565c0-3.972 3.347-7.203 7.46-7.203 4.113 0 7.46 3.231 7.46 7.203v4.283c0 .577.486 1.046 1.084 1.046.6 0 1.084-.469 1.084-1.046v-4.283C45.507 9.171 41.188 5 35.88 5m4.435 14.627c.6 0 1.084-.469 1.084-1.046v-4.283c0-2.938-2.476-5.329-5.517-5.329-3.044 0-5.517 2.391-5.517 5.33v4.282c0 .577.483 1.046 1.083 1.046.598 0 1.084-.469 1.084-1.046v-4.283c0-1.783 1.502-3.233 3.35-3.233 1.844 0 3.348 1.45 3.348 3.233v4.283c0 .577.484 1.046 1.085 1.046m-21.526 8.565c3.041 0 5.517-2.391 5.517-5.33v-4.281c0-.58-.484-1.047-1.083-1.047-.6 0-1.085.467-1.085 1.047v4.282c0 1.783-1.502 3.234-3.35 3.234-1.845 0-3.347-1.451-3.347-3.234V18.58c0-.58-.487-1.047-1.085-1.047-.6 0-1.086.467-1.086 1.047v4.282c0 2.938 2.475 5.329 5.519 5.329m38.286-2.095c-1.848 0-3.35-1.451-3.35-3.234 0-1.784 1.502-3.236 3.35-3.236 1.845 0 3.35 1.452 3.35 3.236 0 1.783-1.505 3.234-3.35 3.234m.002 6.065c5.31 0 9.628-4.171 9.628-9.3V10.28c0-.581-.486-1.05-1.083-1.05-.602 0-1.084.469-1.084 1.05v12.584c0 3.973-3.347 7.206-7.461 7.206-4.114 0-7.461-3.233-7.461-7.206 0-3.974 3.347-7.205 7.46-7.205 1.168 0 2.313.266 3.348.767v2.213a5.607 5.607 0 0 0-3.35-1.104c-3.042 0-5.518 2.39-5.518 5.329 0 2.938 2.476 5.329 5.519 5.329 3.042 0 5.517-2.391 5.517-5.33V10.28c0-.581-.485-1.05-1.084-1.05-.6 0-1.084.469-1.084 1.05v3.868a9.917 9.917 0 0 0-3.347-.584c-5.31 0-9.63 4.17-9.63 9.3 0 5.128 4.32 9.3 9.63 9.3m38.286-2.408c-.598 0-1.083.468-1.083 1.046 0 3.974-3.347 7.204-7.46 7.204h-9.952v13.583c0 .58.486 1.046 1.084 1.046.6 0 1.086-.467 1.086-1.046V40.1h7.782c5.308 0 9.628-4.169 9.628-9.299 0-.578-.486-1.046-1.085-1.046m-17.09-3.658c-1.845 0-3.348-1.451-3.348-3.234 0-1.784 1.503-3.236 3.348-3.236 1.847 0 3.35 1.452 3.35 3.236 0 1.783-1.503 3.234-3.35 3.234m0 6.065a9.92 9.92 0 0 0 3.447-.62c.17.366.547.62.987.62.599 0 1.084-.47 1.084-1.048v-8.251c0-2.94-2.474-5.329-5.518-5.329-3.04 0-5.518 2.39-5.518 5.329 0 2.938 2.477 5.329 5.518 5.329 1.26 0 2.42-.415 3.35-1.103v2.21a7.655 7.655 0 0 1-3.35.77c-4.112 0-7.46-3.233-7.46-7.206 0-3.974 3.348-7.205 7.46-7.205 4.114 0 7.46 3.231 7.46 7.205v8.251c0 .578.486 1.048 1.084 1.048.6 0 1.085-.47 1.085-1.048v-8.251c0-5.13-4.32-9.3-9.629-9.3-5.308 0-9.627 4.17-9.627 9.3 0 5.128 4.319 9.3 9.627 9.3M57.077 50.54c-4.114 0-7.461-3.232-7.461-7.205 0-3.974 3.347-7.205 7.46-7.205 4.115 0 7.462 3.231 7.462 7.205 0 3.973-3.347 7.205-7.461 7.205m6.075-14.41H86.82c3.04 0 5.517-2.39 5.517-5.33 0-.578-.485-1.046-1.084-1.046-.6 0-1.084.468-1.084 1.046 0 1.785-1.503 3.235-3.349 3.235H57.077c-5.31 0-9.63 4.171-9.63 9.3 0 5.128 4.32 9.298 9.63 9.298 5.31 0 9.628-4.17 9.628-9.298a8.979 8.979 0 0 0-.613-3.236h6.663v11.488c0 .58.486 1.046 1.086 1.046.598 0 1.084-.467 1.084-1.046V38.005h-9.97a9.526 9.526 0 0 0-1.803-1.874M35.882 40.1c1.844 0 3.348 1.453 3.348 3.236 0 1.784-1.504 3.234-3.348 3.234-1.848 0-3.35-1.45-3.35-3.234 0-1.783 1.502-3.236 3.35-3.236m-.002-6.064a9.951 9.951 0 0 0-3.348.582v-3.87c0-.577-.486-1.046-1.084-1.046-.6 0-1.083.469-1.083 1.047v5.477c-.002.007 0 .012 0 .017v7.093c0 2.936 2.473 5.328 5.517 5.328 3.04 0 5.517-2.392 5.517-5.328 0-2.939-2.476-5.33-5.517-5.33-1.262 0-2.42.416-3.35 1.107v-2.217a7.683 7.683 0 0 1 3.348-.765c4.112 0 7.458 3.231 7.458 7.205 0 3.973-3.346 7.205-7.458 7.205-4.114 0-7.461-3.232-7.461-7.205V30.749c0-.578-.485-1.047-1.085-1.047-.599 0-1.082.469-1.082 1.047v12.587c0 5.128 4.318 9.298 9.628 9.298 5.308 0 9.627-4.17 9.627-9.298 0-5.129-4.319-9.3-9.627-9.3" fill="#FFF" mask="url(#b)">
    </path>
  </g>
</svg>
